<?xml version="1.0" encoding="UTF-8"?>
<svg id="Capa_1" data-name="Capa 1" xmlns="http://www.w3.org/2000/svg" viewBox="0 0 380.16 242.46">
  <path d="m265.88,116.86c-1.34-10.21,3.07-17.64,12.41-20.83,9.98-3.41,20.05-3.34,29.94.32,7.18,2.66,11.37,9.05,11.39,16.71.05,15.48-.02,30.97.06,46.45.04,8.62-3.92,14.66-11.87,17.53-10.44,3.77-21.09,3.82-31.45-.49-7.15-2.98-10.68-8.69-10.65-16.4.02-4.4.06-8.89.93-13.16,1.25-6.13,5.22-10.27,11.26-12.35,7.16-2.46,14.29-5.02,21.43-7.58,5.59-2.01,7.63-5.73,7-12.61-.39-4.26-3.66-7.65-8.7-8.32-3.17-.42-6.47-.48-9.64-.08-5.21.66-7.97,3.65-8.67,8.83-.2,1.5-.69,2.03-2.19,2-3.7-.08-7.4-.03-11.24-.03Zm40.39,20.85c-2.17.93-4.21,1.89-6.32,2.68-4.14,1.55-8.34,2.92-12.47,4.51-7,2.7-9.62,8.03-7.82,15.32.98,3.99,3.44,6.45,7.42,6.96,3.18.41,6.47.56,9.65.22,6.39-.69,9.49-4.33,9.59-10.74.08-5.84.05-11.69.06-17.53,0-.52-.08-1.04-.11-1.41Z"/>
  <path d="m60.73,116.85c-1.22-10.12,2.78-17.27,11.83-20.6,10.31-3.78,20.85-3.81,31.01.33,7.21,2.94,10.89,8.87,10.92,16.8.03,11.14,0,22.27,0,33.41,0,3.95,0,7.9-.02,11.85-.03,10.61-4.47,16.72-14.77,19.46-8.38,2.23-16.9,2.23-25.26-.27-9.52-2.84-14-9.01-13.95-18.92.01-3.23-.15-6.52.39-9.68,1.17-6.93,4.82-12.08,11.71-14.5,7.29-2.57,14.59-5.12,21.85-7.77,6.52-2.39,9.3-10.66,5.37-16.28-1.07-1.53-2.76-2.92-4.47-3.66-4.82-2.07-9.89-1.88-14.85-.45-3.96,1.14-5.74,4.32-6.27,8.13-.24,1.75-.83,2.23-2.51,2.18-3.61-.11-7.23-.03-10.97-.03Zm40.39,20.84c-1.68.76-3.14,1.52-4.66,2.09-4.88,1.81-9.83,3.45-14.68,5.32-8.08,3.12-9.4,10.93-6.31,17.64,1.04,2.27,2.94,3.9,5.42,4.17,3.58.39,7.23.74,10.79.45,5.98-.5,9.12-3.68,9.38-9.61.3-6.69.07-13.4.07-20.05Z"/>
  <path d="m196.06,94.87h13.31c0,1.39,0,2.69,0,3.99,0,19.67-.14,39.34.05,59.01.11,11.15-4.68,17.59-16.24,20.23-8.62,1.97-17.45,1.98-25.89-1.29-8.11-3.15-12-9.17-11.95-17.98.11-20.62.02-41.24.03-61.85,0-.62.07-1.24.12-2.03h13.05c.06.83.19,1.73.19,2.64,0,18.01,0,36.02,0,54.03,0,1.97.06,3.95.15,5.92.22,4.9,1.99,7.54,6.64,8.94,4.94,1.48,9.98,1.5,14.84-.55,3.74-1.58,5.6-4.47,5.61-8.53.03-13.51.07-27.02.09-40.52.01-7.25,0-14.5,0-21.99Z"/>
  <path d="m141.51,178.09h-12.95V62.64h12.95v115.45Z"/>
  <path d="m259.06,93.98c-.94,3.7-1.72,7.07-2.71,10.39-.16.54-1.19,1.1-1.87,1.17-2.82.27-5.71.08-8.48.55-5.8,1-9.45,4.16-9.4,10.97.16,19.35.03,38.71.12,58.06.01,2.33-.51,3.26-2.99,3.04-2.66-.23-5.37-.18-8.05-.01-2.07.13-2.49-.71-2.48-2.59.07-11.22.04-22.44.04-33.65,0-8.45.23-16.91-.06-25.36-.41-11.8,3.71-18.76,17.43-21.99,5.98-1.41,12.05-1.21,18.45-.59Z"/>
</svg>