<?xml version="1.0" encoding="UTF-8"?>
<svg id="Capa_1" data-name="Capa 1" xmlns="http://www.w3.org/2000/svg" viewBox="0 0 380.16 242.46">
  <path d="m242.21,199.42c-4.34,1.67-8.24,3.31-12.24,4.6-.76.24-2.36-.62-2.9-1.43-9.02-13.54-17.93-27.16-26.87-40.75-3.09-4.7-6.21-9.39-9.58-14.48-13.47,19.44-26.73,38.58-40.19,58.01-4.03-1.7-7.97-3.36-12.29-5.18,17.16-25.17,34.12-50.04,51.32-75.27,17.62,24.88,35.03,49.46,52.76,74.5Z"/>
  <path d="m197.68,111.05h93.82c.16,3.62.31,7.11.48,11.02h-71.77c14.94,21.22,29.39,41.75,44.03,62.54-3.91,2.9-7.72,5.72-11.95,8.85-18.15-27.38-36.21-54.64-54.61-82.4Z"/>
  <path d="m88.17,122.12v-10.95h93.82c-18.2,27.47-36.24,54.71-54.5,82.28-4.08-3.01-7.96-5.87-11.97-8.83,14.61-20.75,29.06-41.28,44-62.49h-71.34Z"/>
  <path d="m189.98,75.87c-6.34-.72-11.9-2.46-16.56-6.66-8.12-7.31-8.03-19.09.24-26.27,7.78-6.75,20.44-7.83,29.19-2.4,6.02,3.73,9.84,9,9.52,16.29-.33,7.53-4.63,12.79-11.27,15.84-3.47,1.59-7.39,2.17-11.11,3.2Z"/>
  <path d="m188.57,80.21c4.47,0,8.69-.1,12.9.07,1.06.04,2.21.79,3.09,1.5,4.75,3.79,9.43,7.67,14.45,11.77v-13.13h14.3v24.73c-4.47,0-8.89.09-13.3-.07-.94-.03-1.94-.85-2.76-1.51-4.79-3.84-9.54-7.74-14.58-11.85v13.22h-14.11v-24.73Z"/>
  <path d="m106.48,87.09c2.63.76,4.39,1.43,6.21,1.77,4.9.91,9.87,1.49,14.73,2.57,3.18.71,6.49,1.87,6.86,5.91.24,2.68-2.5,5.37-6.76,6.55-9.5,2.63-19.07,2.85-28.58,0-3.03-.91-5.84-2.3-7.45-6.44,5.8.92,11.18-1.56,16.36,1.66,2.99,1.86,9.28,1.28,12.22-1.28-2.03-.66-3.63-1.38-5.3-1.68-4.38-.77-8.82-1.22-13.18-2.05-1.99-.38-3.99-1.13-5.77-2.11-4.26-2.35-4.33-6.86-.02-9.17,2.43-1.3,5.25-2.11,7.99-2.57,7.34-1.26,14.71-1.28,21.91.95,2.92.9,5.7,2.15,7.06,6.12-5.46-.6-10.64,1.32-15.68-1.31-2.6-1.36-7.12-1.06-10.61,1.09Z"/>
  <path d="m179.77,85.88c-6.01,0-11.62,0-17.23,0-.87,0-1.74.07-2.6-.01-2.63-.24-3.69.74-2.63,3.7h18.59v5.67h-18.75c-.1,1.45-.17,2.56-.27,4.07h23.5v5.61h-38.64v-24.54h37.8c.07,1.63.15,3.33.24,5.5Z"/>
  <path d="m239.06,105.17c3.82-5.75,7.82-10.67,10.58-16.2,3.64-7.27,8.76-9.86,16.76-8.98,3.75.41,5.99,1.31,7.96,4.53,4.06,6.65,8.57,13.02,12.88,19.52.1.16.06.41.15,1.11-4.52,0-9,0-13.47-.01-.31,0-.8-.08-.89-.28-2.2-4.78-6.49-2.53-9.95-2.93-1.82-.21-3.69-.15-5.52.01-.85.08-2.14.48-2.39,1.08-.93,2.2-2.62,2.2-4.52,2.16-3.64-.06-7.28-.02-11.6-.02Zm24.35-17.71c-1.75,3.39-3.15,6.1-4.64,8.98h9.49c-1.63-3.01-3.06-5.65-4.86-8.98Z"/>
</svg>